<svg height="512pt" viewBox="0 0 512.001 512" width="512pt" xmlns="http://www.w3.org/2000/svg"><path d="m255.863281 168.699219c-48.050781 0-87.140625 39.09375-87.140625 87.144531 0 48.046875 39.09375 87.140625 87.140625 87.140625 48.050781 0 87.144531-39.09375 87.144531-87.140625 0-48.050781-39.09375-87.144531-87.144531-87.144531zm0 144.292969c-31.511719 0-57.148437-25.636719-57.148437-57.148438s25.636718-57.148438 57.148437-57.148438 57.152344 25.636719 57.152344 57.148438-25.640625 57.148438-57.152344 57.148438zm0 0"/><path d="m497.003906 240.847656h-55.054687c-7.265625-91.007812-80.082031-163.824218-171.089844-171.089844v-54.761718c0-8.28125-6.714844-14.996094-14.996094-14.996094s-14.996093 6.714844-14.996093 14.996094v54.761718c-91.007813 7.265626-163.820313 80.082032-171.089844 171.089844h-54.78125c-8.28125 0-14.996094 6.710938-14.996094 14.996094 0 8.28125 6.714844 14.996094 14.996094 14.996094h54.78125c7.269531 91.003906 80.085937 163.820312 171.089844 171.089844v54.757812c0 8.28125 6.714843 14.996094 14.996093 14.996094 8.285157 0 15-6.714844 15-14.996094v-54.757812c91.003907-7.269532 163.820313-80.082032 171.085938-171.089844h55.054687c8.28125 0 14.996094-6.714844 14.996094-14.996094 0-8.285156-6.714844-14.996094-14.996094-14.996094zm-241.140625 171.691406c-86.402343 0-156.695312-70.292968-156.695312-156.695312s70.296875-156.695312 156.695312-156.695312c86.402344 0 156.699219 70.292968 156.699219 156.695312s-70.292969 156.695312-156.699219 156.695312zm0 0"/></svg>