<svg height="436pt" viewBox="0 -20 436.49136 436" width="436pt" xmlns="http://www.w3.org/2000/svg"><path d="m232.753906 393.714844c1.621094 1.042968 3.511719 1.589844 5.4375 1.582031 1.640625-.003906 3.25-.429687 4.679688-1.230469 3.199218-1.765625 5.167968-5.144531 5.128906-8.796875v-375c.035156-3.648437-1.933594-7.023437-5.128906-8.785156-3.191406-1.765625-7.097656-1.636719-10.164063.335937l-161.984375 104.949219h-61.210937c-5.523438 0-9.511719 4.585938-9.511719 10.105469v161.78125c0 5.523438 3.988281 10.113281 9.511719 10.113281h61.210937zm-4.753906-26.847656-143-92.613282v-152.976562l143-92.609375zm-208-240.097657h45v142h-45zm0 0"/><path d="m433.5625 136.957031c-3.90625-3.90625-10.238281-3.90625-14.144531 0l-46.667969 46.667969-46.667969-46.667969c-3.90625-3.90625-10.238281-3.90625-14.144531 0s-3.90625 10.238281 0 14.140625l46.667969 46.671875-46.667969 46.667969c-3.90625 3.90625-3.90625 10.238281 0 14.140625 3.90625 3.90625 10.238281 3.90625 14.144531 0l46.667969-46.667969 46.667969 46.667969c3.90625 3.90625 10.238281 3.90625 14.144531 0 3.90625-3.902344 3.90625-10.234375 0-14.140625l-46.667969-46.667969 46.667969-46.671875c3.90625-3.902344 3.90625-10.238281 0-14.140625zm0 0"/></svg>