<?xml version="1.0" encoding="iso-8859-1"?>
<!-- Generator: Adobe Illustrator 19.0.0, SVG Export Plug-In . SVG Version: 6.00 Build 0)  -->
<svg version="1.1" id="Capa_1" xmlns="http://www.w3.org/2000/svg" xmlns:xlink="http://www.w3.org/1999/xlink" x="0px" y="0px"
	 viewBox="0 0 490.667 490.667" style="enable-background:new 0 0 490.667 490.667;" xml:space="preserve">
<g>
	<g>
		<path d="M418.816,71.851c-4.16-4.16-10.923-4.16-15.083,0c-4.16,4.16-4.16,10.923,0,15.083c42.304,42.325,65.6,98.581,65.6,158.4
			c0,123.52-100.48,224-224,224s-224-100.48-224-224c0-119.936,94.741-218.176,213.333-223.744v42.965
			C139.648,70.101,64,148.949,64,245.333c0,99.989,81.344,181.333,181.333,181.333s181.333-81.344,181.333-181.333
			c0-48.448-18.859-93.973-53.12-128.213c-4.16-4.16-10.923-4.16-15.083,0c-4.16,4.16-4.16,10.923,0,15.083
			c30.229,30.208,46.869,70.4,46.869,113.131c0,88.235-71.765,160-160,160s-160-71.765-160-160
			c0-84.629,66.091-153.941,149.333-159.467v42.667C174.955,133.952,128,184.235,128,245.333
			c0,64.704,52.629,117.333,117.333,117.333s117.333-52.629,117.333-117.333c0-31.339-12.203-60.8-34.368-82.965
			c-4.16-4.16-10.923-4.16-15.083,0c-4.16,4.16-4.16,10.923,0,15.083c18.133,18.133,28.117,42.24,28.117,67.883
			c0,52.928-43.072,96-96,96c-52.928,0-96-43.072-96-96c0-49.28,37.461-89.536,85.333-94.912v64.896
			c-12.395,4.416-21.333,16.149-21.333,30.037c0,17.643,14.357,32,32,32c17.643,0,32-14.357,32-32
			c0-13.888-8.939-25.621-21.333-30.037V10.667C256,4.779,251.221,0,245.333,0C110.059,0,0,110.059,0,245.333
			s110.059,245.333,245.333,245.333s245.333-110.059,245.333-245.333C490.667,179.819,465.152,118.208,418.816,71.851z"/>
	</g>
</g>
<g>
</g>
<g>
</g>
<g>
</g>
<g>
</g>
<g>
</g>
<g>
</g>
<g>
</g>
<g>
</g>
<g>
</g>
<g>
</g>
<g>
</g>
<g>
</g>
<g>
</g>
<g>
</g>
<g>
</g>
</svg>
